<svg xmlns="http://www.w3.org/2000/svg" xmlns:xlink="http://www.w3.org/1999/xlink" viewBox="0 0 150 150"><defs><linearGradient id="linear-gradient" x1="-345.99" y1="-35.88" x2="-349.65" y2="5.87" gradientTransform="matrix(1.22, 0.32, -0.31, 1.18, 482.74, 232.68)" gradientUnits="userSpaceOnUse"><stop offset="0" stop-color="#1e2ed9"></stop><stop offset="0.56" stop-color="#9dbbff"></stop><stop offset="1" stop-color="#affad7"></stop></linearGradient><linearGradient id="Unbenannter_Verlauf_14" x1="69.71" y1="31.12" x2="65.1" y2="83.69" gradientUnits="userSpaceOnUse"><stop offset="0" stop-color="#affad7"></stop><stop offset="0.44" stop-color="#9dbbff"></stop><stop offset="1" stop-color="#1e2ed9"></stop></linearGradient><linearGradient id="linear-gradient-2" x1="262.45" y1="1040.3" x2="286.1" y2="999.34" gradientTransform="matrix(0.71, -0.71, 0.67, 0.67, -784.84, -421.4)" gradientUnits="userSpaceOnUse"><stop offset="0" stop-color="#affad7"></stop><stop offset="0.12" stop-color="#acf0de"></stop><stop offset="0.34" stop-color="#a4d4ef"></stop><stop offset="0.5" stop-color="#9dbbff"></stop><stop offset="1" stop-color="#1e2ed9"></stop></linearGradient><linearGradient id="linear-gradient-3" x1="-2089.74" y1="781.31" x2="-2060.79" y2="731.16" gradientTransform="matrix(-1.06, 0.68, 0.67, 1.04, -2606.84, 720.24)" xlink:href="#linear-gradient-2"></linearGradient><linearGradient id="Unbenannter_Verlauf_48" x1="64.41" y1="56.82" x2="83.33" y2="28.94" gradientUnits="userSpaceOnUse"><stop offset="0" stop-color="#1e2ed9"></stop><stop offset="0.5" stop-color="#9dbbff"></stop><stop offset="0.66" stop-color="#a4d4ef"></stop><stop offset="0.88" stop-color="#acf0de"></stop><stop offset="1" stop-color="#affad7"></stop></linearGradient></defs><g id="_36" data-name="36"><path class="cls-1" d="M67,80.64l-7.34,29.5a4.57,4.57,0,0,0,8.84,2.29l6.71-19.81L72.71,89A26.58,26.58,0,0,1,67,80.64Z"></path><path class="cls-2" d="M74.83,49.37a7.19,7.19,0,0,0-5,2l0,0,0,0,0,0L49.88,71.34A3.64,3.64,0,0,0,55,76.49L67.61,63.91V76.84H82.84V57.38A8,8,0,0,0,74.83,49.37Z"></path><path class="cls-3" d="M100.13,71.31,83.92,55.15a9.14,9.14,0,0,1,.28,2.23V65.7L95,76.45a3.63,3.63,0,0,0,5.14-5.14Z"></path><path class="cls-4" d="M99.39,109,85.47,85.1a21.56,21.56,0,0,1-2.53-6.9H67.74c.86,5,6,10,6,10l17.95,25.74A4.57,4.57,0,0,0,95.56,116a4.48,4.48,0,0,0,2.45-.72A4.57,4.57,0,0,0,99.39,109Z"></path><circle class="cls-5" cx="75.22" cy="40.89" r="6.87"></circle></g></svg>