<svg xmlns="http://www.w3.org/2000/svg" xmlns:xlink="http://www.w3.org/1999/xlink" viewBox="0 0 150 150"><defs><linearGradient id="Unbenannter_Verlauf_31" x1="-2710.34" y1="-633.51" x2="-2710.34" y2="-559.07" gradientTransform="translate(-2635.34 -537.5) rotate(180)" gradientUnits="userSpaceOnUse"><stop offset="0" stop-color="#affad7"></stop><stop offset="0.43" stop-color="#9dbbff"></stop><stop offset="1" stop-color="#1e2ed9"></stop></linearGradient></defs><g id="_62" data-name="62"><path class="cls-1" d="M75,91.16A20.57,20.57,0,0,0,95.56,70.6C95.56,54.87,75,31.51,75,31.51S54.44,55.76,54.44,70.6A20.57,20.57,0,0,0,75,91.16Z"></path><rect class="cls-2" x="74.25" y="61.99" width="1.5" height="56.5"></rect><path class="cls-2" d="M75.34,72.92l-1.06-1.06L77,69.14l1.06,1.06Zm4.35-4.35-1.06-1.06,2.72-2.72,1.06,1.06ZM84,64.22,83,63.16l2.28-2.28,1.06,1.06Z"></path><path class="cls-2" d="M74.64,79.66l-2.72-2.72L73,75.88,75.7,78.6Zm-4.35-4.35-2.72-2.72,1.06-1.06,2.72,2.72ZM65.94,71l-2.28-2.28,1.06-1.06L67,69.9Z"></path></g></svg>