<svg xmlns="http://www.w3.org/2000/svg" xmlns:xlink="http://www.w3.org/1999/xlink" viewBox="0 0 150 150"><defs><linearGradient id="Icon_Gradient_2" x1="-125.82" y1="1500.46" x2="-109.89" y2="1512.06" gradientTransform="translate(167.16 -1425.05) scale(0.73 1)" gradientUnits="userSpaceOnUse"><stop offset="0" stop-color="#affad7"></stop><stop offset="0.44" stop-color="#9dbbff"></stop><stop offset="1" stop-color="#1e2ed9"></stop></linearGradient><linearGradient id="Unbenannter_Verlauf_49" x1="-648.02" y1="1550.41" x2="-603.21" y2="1505.6" gradientTransform="translate(-541.06 -1425.22) rotate(-45)" gradientUnits="userSpaceOnUse"><stop offset="0" stop-color="#affad7"></stop><stop offset="0.44" stop-color="#9dbbff"></stop><stop offset="0.99" stop-color="#1e2ed9"></stop></linearGradient><linearGradient id="linear-gradient" x1="-617.04" y1="1661.41" x2="-635.15" y2="1587.75" gradientTransform="translate(692.88 -1424.21) scale(1 0.92)" gradientUnits="userSpaceOnUse"><stop offset="0.01" stop-color="#1e2ed9"></stop><stop offset="0.56" stop-color="#9dbbff"></stop><stop offset="1" stop-color="#affad7"></stop></linearGradient><linearGradient id="Unbenannter_Verlauf_49-2" x1="-662.37" y1="1498.95" x2="-679.64" y2="1469.03" gradientTransform="translate(709.55 -1391.37)" xlink:href="#Unbenannter_Verlauf_49"></linearGradient><linearGradient id="Unbenannter_Verlauf_49-3" x1="-651.76" y1="1498.98" x2="-669.29" y2="1468.61" gradientTransform="translate(706.39 -1398.99)" xlink:href="#Unbenannter_Verlauf_49"></linearGradient><linearGradient id="Unbenannter_Verlauf_49-4" x1="-641.47" y1="1498.86" x2="-658.67" y2="1469.07" gradientTransform="translate(703.36 -1406.32)" xlink:href="#Unbenannter_Verlauf_49"></linearGradient><linearGradient id="Unbenannter_Verlauf_7" x1="-646.71" y1="1512.89" x2="-663.94" y2="1483.04" gradientTransform="translate(709.88 -1400.09)" gradientUnits="userSpaceOnUse"><stop offset="0" stop-color="#affad7"></stop><stop offset="0.41" stop-color="#688ac4" stop-opacity="0.59"></stop><stop offset="0.82" stop-color="#1e2ed9" stop-opacity="0"></stop></linearGradient><linearGradient id="Unbenannter_Verlauf_49-5" x1="-3351.89" y1="1499.13" x2="-3369.17" y2="1469.21" gradientTransform="matrix(1, 0, 0, -1, 3457.2, 1536.33)" xlink:href="#Unbenannter_Verlauf_49"></linearGradient><linearGradient id="Unbenannter_Verlauf_49-6" x1="-3341.28" y1="1499.16" x2="-3358.81" y2="1468.79" gradientTransform="matrix(1, 0, 0, -1, 3438.81, 1543.95)" xlink:href="#Unbenannter_Verlauf_49"></linearGradient><linearGradient id="Unbenannter_Verlauf_49-7" x1="-3330.99" y1="1499.04" x2="-3348.19" y2="1469.25" gradientTransform="matrix(1, 0, 0, -1, 3421.12, 1551.27)" xlink:href="#Unbenannter_Verlauf_49"></linearGradient><linearGradient id="Unbenannter_Verlauf_7-2" x1="-3336.23" y1="1513.07" x2="-3353.46" y2="1483.22" gradientTransform="matrix(1, 0, 0, -1, 3442.88, 1551.78)" xlink:href="#Unbenannter_Verlauf_7"></linearGradient></defs><g id="_67" data-name="67"><rect class="cls-1" x="76.77" y="79.88" width="13.81" height="7.46" transform="translate(-34.61 83.66) rotate(-45)"></rect><rect class="cls-2" x="98.96" y="94.69" width="1.47" height="9.88" transform="translate(-41.25 99.67) rotate(-45)"></rect><path class="cls-2" d="M105.31,109a3.75,3.75,0,0,1-2.65-6.39,3.85,3.85,0,0,1,5.3,0h0a3.75,3.75,0,0,1,1.09,2.65,3.74,3.74,0,0,1-3.74,3.74Zm0-6a2.28,2.28,0,0,0-1.61,3.89,2.35,2.35,0,0,0,3.22,0,2.29,2.29,0,0,0,0-3.22h0A2.26,2.26,0,0,0,105.31,103Z"></path><path class="cls-3" d="M84.77,84.71a25.69,25.69,0,0,0-3.45,32l35.47-35.47A25.68,25.68,0,0,0,84.77,84.71Z"></path><rect class="cls-2" x="55.14" y="71.72" width="34.75" height="1.47" transform="translate(-29.99 72.5) rotate(-45)"></rect><path class="cls-4" d="M62.19,47.21H73.27a5.16,5.16,0,0,1,5.16,5.16V88.13a0,0,0,0,1,0,0H57a0,0,0,0,1,0,0V52.37A5.16,5.16,0,0,1,62.19,47.21Z" transform="translate(-28.01 67.71) rotate(-45)"></path><path class="cls-5" d="M38.88,91.81h9.9a0,0,0,0,1,0,0v19a0,0,0,0,1,0,0h-9.9A.88.88,0,0,1,38,110V92.68A.88.88,0,0,1,38.88,91.81Z" transform="translate(-58.94 60.36) rotate(-45)"></path><rect class="cls-6" x="45.62" y="84.19" width="10.78" height="19.04" transform="translate(-51.32 63.51) rotate(-45)"></rect><rect class="cls-7" x="53.36" y="76.86" width="9.94" height="19.04" transform="translate(-43.99 66.55) rotate(-45)"></rect><path class="cls-8" d="M38.33,92.61h31.5a0,0,0,0,1,0,0v9.52a0,0,0,0,1,0,0H39.21a.88.88,0,0,1-.88-.88V92.61A0,0,0,0,1,38.33,92.61Z" transform="translate(-53.01 66.76) rotate(-45)"></path><path class="cls-9" d="M97,33.93h9.9a0,0,0,0,1,0,0V53a0,0,0,0,1,0,0H97a.88.88,0,0,1-.88-.88V34.81A.88.88,0,0,1,97,33.93Z" transform="translate(204.02 2.39) rotate(135)"></path><rect class="cls-10" x="88.51" y="41.55" width="10.78" height="19.04" transform="translate(196.4 20.79) rotate(135)"></rect><rect class="cls-11" x="81.6" y="48.88" width="9.94" height="19.04" transform="translate(189.08 38.47) rotate(135)"></rect><path class="cls-12" d="M82.69,49.38H113.3a0,0,0,0,1,0,0V58.9a0,0,0,0,1,0,0H81.81a0,0,0,0,1,0,0V50.26A.88.88,0,0,1,82.69,49.38Z" transform="translate(204.82 23.44) rotate(135)"></path><rect class="cls-13" x="67.87" y="59.22" width="1.47" height="18.64" transform="translate(-28.37 68.59) rotate(-45)"></rect></g></svg>