<svg xmlns="http://www.w3.org/2000/svg" xmlns:xlink="http://www.w3.org/1999/xlink" viewBox="0 0 150 150"><defs><linearGradient id="linear-gradient" x1="-2253.62" y1="1166.53" x2="-2252.55" y2="1166.53" gradientTransform="matrix(0, -80.37, -80.37, 0, 93808.99, -180999.33)" gradientUnits="userSpaceOnUse"><stop offset="0" stop-color="#1e2ed9"></stop><stop offset="0.56" stop-color="#9dbbff"></stop><stop offset="1" stop-color="#affad7"></stop><stop offset="1" stop-color="#affad7"></stop></linearGradient><linearGradient id="linear-gradient-2" x1="-2253.62" y1="1166.52" x2="-2252.55" y2="1166.52" gradientTransform="matrix(0, -80.37, -80.37, 0, 93822.72, -180999.33)" xlink:href="#linear-gradient"></linearGradient><linearGradient id="linear-gradient-3" x1="-2253.62" y1="1166.51" x2="-2252.55" y2="1166.51" gradientTransform="matrix(0, -80.37, -80.37, 0, 93836.46, -180999.33)" xlink:href="#linear-gradient"></linearGradient><linearGradient id="linear-gradient-4" x1="-2253.76" y1="1166.5" x2="-2252.26" y2="1166.5" gradientTransform="matrix(0, -80.37, -80.37, 0, 93850.19, -180999.33)" xlink:href="#linear-gradient"></linearGradient></defs><g id="_18" data-name="18"><rect class="cls-1" x="45.15" y="93.44" width="12.24" height="9.04"></rect><rect class="cls-2" x="59.8" y="78.55" width="12.24" height="23.92"></rect><rect class="cls-3" x="74.45" y="59.8" width="12.24" height="42.67"></rect><rect class="cls-4" x="89.09" y="40.74" width="12.24" height="61.73"></rect><rect class="cls-5" x="39.29" y="104.25" width="66.14" height="1.5"></rect><polygon class="cls-5" points="104.12 63.44 102.62 63.44 102.62 53.9 93.08 53.9 93.08 52.4 104.12 52.4 104.12 63.44"></polygon><polygon class="cls-5" points="58.37 99.33 43.38 99.33 43.38 97.83 57.74 97.83 76.1 79.37 76.1 67.79 87.67 67.79 102.84 52.62 103.9 53.68 88.3 69.29 77.6 69.29 77.6 79.98 58.37 99.33"></polygon><circle class="cls-6" cx="97.21" cy="95.76" r="12.75"></circle><path class="cls-5" d="M97.21,109.26a13.5,13.5,0,1,1,13.5-13.5A13.51,13.51,0,0,1,97.21,109.26Zm0-25.5a12,12,0,1,0,12,12A12,12,0,0,0,97.21,83.76Z"></path><path class="cls-5" d="M97.21,95.45A3.46,3.46,0,0,1,93.76,92v-.45a3.45,3.45,0,1,1,6.9,0V92A3.46,3.46,0,0,1,97.21,95.45Zm0-5.85a2,2,0,0,0-1.95,2V92a1.95,1.95,0,0,0,3.9,0v-.45A2,2,0,0,0,97.21,89.6Z"></path><path class="cls-5" d="M103.17,102.92H91.26V102a5.94,5.94,0,0,1,5.94-5.94h0a6,6,0,0,1,6,5.94Zm-10.37-1.5h8.83a4.46,4.46,0,0,0-4.41-3.85h0A4.44,4.44,0,0,0,92.8,101.42Z"></path></g></svg>