<svg xmlns="http://www.w3.org/2000/svg" xmlns:xlink="http://www.w3.org/1999/xlink" viewBox="0 0 150 150"><defs><linearGradient id="Unbenannter_Verlauf_38" x1="24.3" y1="103.89" x2="141.04" y2="38.95" gradientUnits="userSpaceOnUse"><stop offset="0.08" stop-color="#affad7"></stop><stop offset="0.44" stop-color="#9dbbff"></stop><stop offset="0.91" stop-color="#1e2ed9"></stop></linearGradient></defs><g id="_30" data-name="30"><path class="cls-1" d="M97.08,103.57v1.5h5.37a40.71,40.71,0,0,1-68.16-29.7l-1.5,0a42.21,42.21,0,0,0,70.78,30.68v5.48h1.5v-8Z"></path><path class="cls-1" d="M104.85,45.15A42.22,42.22,0,0,0,46.57,43.8V38.32h-1.5v8h8v-1.5H47.7a40.71,40.71,0,0,1,68,30.2h1.5A41.93,41.93,0,0,0,104.85,45.15Z"></path><path class="cls-2" d="M106.09,77.58a15.7,15.7,0,0,0-6.78,19.14l-2.59,2.59a15.7,15.7,0,0,0-19.14,6.78H72.42a15.7,15.7,0,0,0-17.58-7.28l-3.65-3.65a15.7,15.7,0,0,0-7.28-17.58V72.42a15.7,15.7,0,0,0,7.28-17.58l3.65-3.65a15.7,15.7,0,0,0,17.58-7.28h5.16a15.7,15.7,0,0,0,17.58,7.28l3.65,3.65a15.7,15.7,0,0,0,7.28,17.58Z"></path><circle class="cls-3" cx="75" cy="75" r="13.93"></circle><path class="cls-1" d="M75,63.48A11.52,11.52,0,1,0,86.52,75,11.54,11.54,0,0,0,75,63.48ZM85.19,75A10.19,10.19,0,1,1,75,64.81,10.2,10.2,0,0,1,85.19,75Z"></path></g></svg>