<svg xmlns="http://www.w3.org/2000/svg" xmlns:xlink="http://www.w3.org/1999/xlink" viewBox="0 0 150 150"><defs><linearGradient id="Unbenannter_Verlauf_56" x1="34.47" y1="50.96" x2="59.29" y2="118.75" gradientUnits="userSpaceOnUse"><stop offset="0" stop-color="#affad7"></stop><stop offset="0.44" stop-color="#9dbbff"></stop><stop offset="1" stop-color="#1e2ed9"></stop></linearGradient><linearGradient id="Unbenannter_Verlauf_56-2" x1="98.86" y1="27.55" x2="122.97" y2="93.41" xlink:href="#Unbenannter_Verlauf_56"></linearGradient><linearGradient id="Unbenannter_Verlauf_14" x1="26.31" y1="92" x2="79.21" y2="92" gradientUnits="userSpaceOnUse"><stop offset="0" stop-color="#affad7"></stop><stop offset="0.44" stop-color="#9dbbff"></stop><stop offset="1" stop-color="#1e2ed9"></stop></linearGradient><linearGradient id="Unbenannter_Verlauf_57" x1="49.97" y1="103.28" x2="49.97" y2="75.06" gradientUnits="userSpaceOnUse"><stop offset="0" stop-color="#1e2ed9"></stop><stop offset="0.1" stop-color="#1e2ed9" stop-opacity="0.97"></stop><stop offset="0.24" stop-color="#1e2ed9" stop-opacity="0.89"></stop><stop offset="0.4" stop-color="#1e2ed9" stop-opacity="0.76"></stop><stop offset="0.58" stop-color="#1e2ed9" stop-opacity="0.57"></stop><stop offset="0.77" stop-color="#1e2ed9" stop-opacity="0.33"></stop><stop offset="0.97" stop-color="#1e2ed9" stop-opacity="0.05"></stop><stop offset="1" stop-color="#1e2ed9" stop-opacity="0"></stop></linearGradient><linearGradient id="Unbenannter_Verlauf_57-2" x1="100.03" y1="103.28" x2="100.03" y2="75.06" xlink:href="#Unbenannter_Verlauf_57"></linearGradient><linearGradient id="Unbenannter_Verlauf_56-3" x1="65.72" y1="45.54" x2="100.31" y2="105.37" xlink:href="#Unbenannter_Verlauf_56"></linearGradient><linearGradient id="Unbenannter_Verlauf_46" x1="-13.84" y1="57.65" x2="110.19" y2="57.65" xlink:href="#Unbenannter_Verlauf_14"></linearGradient><linearGradient id="Unbenannter_Verlauf_56-4" x1="56.78" y1="51.26" x2="90.87" y2="110.25" xlink:href="#Unbenannter_Verlauf_56"></linearGradient><linearGradient id="Unbenannter_Verlauf_46-2" x1="138.59" y1="85.41" x2="32.19" y2="85.41" xlink:href="#Unbenannter_Verlauf_14"></linearGradient></defs><g id="_75" data-name="75"><path class="cls-1" d="M42.68,62.4V59.74a2.43,2.43,0,0,0-2.43-2.44H34.46a4.11,4.11,0,0,0-4.1,4.1v.67A2.43,2.43,0,0,0,32.8,64.5H46.56L47,62.4Z"></path><path class="cls-2" d="M115.54,57.3h-5.79a2.43,2.43,0,0,0-2.43,2.44V62.4H103l1,2.1h13.2a2.43,2.43,0,0,0,2.44-2.43V61.4A4.11,4.11,0,0,0,115.54,57.3Z"></path><polyline class="cls-3" points="92.55 87.31 57.29 87.96 54.85 96.69 95.15 96.69"></polyline><path class="cls-4" d="M43.57,94.79h12.8a0,0,0,0,1,0,0V102A3.07,3.07,0,0,1,53.31,105H46.64A3.07,3.07,0,0,1,43.57,102V94.79A0,0,0,0,1,43.57,94.79Z"></path><path class="cls-5" d="M93.63,94.79h12.8a0,0,0,0,1,0,0V102a3.07,3.07,0,0,1-3.07,3.07H96.69A3.07,3.07,0,0,1,93.63,102V94.79A0,0,0,0,1,93.63,94.79Z"></path><path class="cls-6" d="M98.13,50.75l-1.25-2.27A6.59,6.59,0,0,0,91.8,45c-.21,0-.43,0-.65,0H58.79a6.62,6.62,0,0,0-5.68,3.54l-1.24,2.24L46.25,62.81h57.5Z"></path><polygon class="cls-7" points="45.63 64.13 45.16 64.54 104.84 64.54 104.36 64.13 98.13 50.75 51.87 50.75 45.63 64.13"></polygon><path class="cls-8" d="M109.82,68.87l-5.46-4.75-.18-.39H45.82l-.19.39-5.45,4.75a5.53,5.53,0,0,0-1.91,4.18V92.24a6.61,6.61,0,0,0,6.61,6.61H56.52l2.69-4.78a5.68,5.68,0,0,1,5-2.9H85.83a5.68,5.68,0,0,1,5,2.9l2.69,4.78h11.64a6.61,6.61,0,0,0,6.61-6.61V73.05A5.53,5.53,0,0,0,109.82,68.87ZM58.59,76.51,57,77.79a1.72,1.72,0,0,1-1.27.37l-12.56-1.3a1.76,1.76,0,0,1-1.56-2l.51-4.24a1.76,1.76,0,0,1,2.26-1.47L58,73.46A1.75,1.75,0,0,1,58.59,76.51Zm48.28.35-12.56,1.3A1.72,1.72,0,0,1,93,77.79l-1.63-1.28A1.75,1.75,0,0,1,92,73.46l13.68-4.26a1.76,1.76,0,0,1,2.26,1.47l.51,4.24A1.75,1.75,0,0,1,106.87,76.86Z"></path><path class="cls-9" d="M93.76,88.78H56.24a1.7,1.7,0,0,1-1.57-1L53.26,84.4A1.7,1.7,0,0,1,54.83,82H95.17a1.7,1.7,0,0,1,1.57,2.36l-1.41,3.34A1.7,1.7,0,0,1,93.76,88.78Z"></path></g></svg>