<svg xmlns="http://www.w3.org/2000/svg" xmlns:xlink="http://www.w3.org/1999/xlink" viewBox="0 0 150 150"><defs><linearGradient id="Unbenannter_Verlauf_6" x1="138.82" y1="110.71" x2="13.08" y2="41.43" gradientUnits="userSpaceOnUse"><stop offset="0.11" stop-color="#affad7"></stop><stop offset="0.44" stop-color="#9dbbff"></stop><stop offset="0.54" stop-color="#9ab7fe"></stop><stop offset="0.63" stop-color="#8facfb"></stop><stop offset="0.73" stop-color="#7e99f6"></stop><stop offset="0.82" stop-color="#667eef"></stop><stop offset="0.91" stop-color="#475be5"></stop><stop offset="0.99" stop-color="#2132da"></stop><stop offset="1" stop-color="#1e2ed9"></stop></linearGradient><linearGradient id="Unbenannter_Verlauf_4" x1="37.18" y1="61.59" x2="145.16" y2="125.29" gradientUnits="userSpaceOnUse"><stop offset="0" stop-color="#1e2ed9"></stop><stop offset="0.07" stop-color="#485ce6"></stop><stop offset="0.15" stop-color="#6d85f0"></stop><stop offset="0.22" stop-color="#87a3f8"></stop><stop offset="0.28" stop-color="#97b5fd"></stop><stop offset="0.32" stop-color="#9dbbff"></stop><stop offset="0.56" stop-color="#affad7"></stop></linearGradient></defs><g id="Ebene_1" data-name="Ebene 1"><rect class="cls-1" x="39.39" y="44.49" width="71.21" height="62.12" rx="3.12"></rect><rect class="cls-2" x="66.31" y="52.02" width="17.38" height="6.12"></rect><path class="cls-3" d="M75,100.79A16.89,16.89,0,1,1,91.89,83.9,16.91,16.91,0,0,1,75,100.79Z"></path><path class="cls-2" d="M75,67.51A16.39,16.39,0,1,1,58.61,83.9,16.41,16.41,0,0,1,75,67.51m0-1A17.39,17.39,0,1,0,92.39,83.9,17.39,17.39,0,0,0,75,66.51Z"></path><line class="cls-4" x1="101" y1="44.49" x2="101" y2="106.61"></line><line class="cls-4" x1="49" y1="44.49" x2="49" y2="106.61"></line><circle class="cls-5" cx="75" cy="70.67" r="1.08"></circle><circle class="cls-5" cx="75" cy="97.13" r="1.08"></circle><circle class="cls-5" cx="88.23" cy="83.9" r="1.08"></circle><circle class="cls-5" cx="61.77" cy="83.9" r="1.08"></circle></g></svg>