<svg width="196" height="87" xmlns="http://www.w3.org/2000/svg" xmlns:xlink="http://www.w3.org/1999/xlink" xml:space="preserve" overflow="hidden"><defs><clipPath id="clip0"><rect x="3763" y="1832" width="196" height="87"></rect></clipPath><linearGradient x1="0" y1="43.5002" x2="196" y2="43.5002" gradientUnits="userSpaceOnUse" spreadMethod="reflect" id="fill1"><stop offset="0" stop-color="#A2DCE6"></stop><stop offset="0.0120482" stop-color="#A1DBE6"></stop><stop offset="0.0240964" stop-color="#A1DBE6"></stop><stop offset="0.0361446" stop-color="#A1DBE6"></stop><stop offset="0.0481928" stop-color="#A1DBE6"></stop><stop offset="0.060241" stop-color="#A1DBE6"></stop><stop offset="0.0722892" stop-color="#A1DBE6"></stop><stop offset="0.0843373" stop-color="#A1DBE6"></stop><stop offset="0.0963855" stop-color="#A1DAE6"></stop><stop offset="0.108434" stop-color="#A1DAE6"></stop><stop offset="0.120482" stop-color="#A0DAE7"></stop><stop offset="0.13253" stop-color="#A0DAE7"></stop><stop offset="0.144578" stop-color="#A0D9E7"></stop><stop offset="0.156627" stop-color="#A0D9E7"></stop><stop offset="0.168675" stop-color="#A0D9E7"></stop><stop offset="0.180723" stop-color="#9FD8E7"></stop><stop offset="0.192771" stop-color="#9FD8E7"></stop><stop offset="0.204819" stop-color="#9FD7E7"></stop><stop offset="0.216867" stop-color="#9ED7E7"></stop><stop offset="0.228916" stop-color="#9ED6E7"></stop><stop offset="0.240964" stop-color="#9ED6E8"></stop><stop offset="0.253012" stop-color="#9DD5E8"></stop><stop offset="0.26506" stop-color="#9DD5E8"></stop><stop offset="0.277108" stop-color="#9CD4E8"></stop><stop offset="0.289157" stop-color="#9CD3E8"></stop><stop offset="0.301205" stop-color="#9CD3E8"></stop><stop offset="0.313253" stop-color="#9BD2E8"></stop><stop offset="0.325301" stop-color="#9BD1E8"></stop><stop offset="0.337349" stop-color="#9AD1E8"></stop><stop offset="0.349398" stop-color="#9AD0E8"></stop><stop offset="0.361446" stop-color="#99CFE8"></stop><stop offset="0.373494" stop-color="#99CEE8"></stop><stop offset="0.385542" stop-color="#98CDE8"></stop><stop offset="0.39759" stop-color="#98CDE9"></stop><stop offset="0.409639" stop-color="#97CCE9"></stop><stop offset="0.421687" stop-color="#96CBE9"></stop><stop offset="0.433735" stop-color="#96CAE9"></stop><stop offset="0.445783" stop-color="#95C9E9"></stop><stop offset="0.457831" stop-color="#95C8E9"></stop><stop offset="0.46988" stop-color="#94C7E9"></stop><stop offset="0.481928" stop-color="#93C6E9"></stop><stop offset="0.493976" stop-color="#93C5E9"></stop><stop offset="0.506024" stop-color="#92C4E9"></stop><stop offset="0.518072" stop-color="#91C3E9"></stop><stop offset="0.53012" stop-color="#90C2E9"></stop><stop offset="0.542169" stop-color="#90C1E9"></stop><stop offset="0.554217" stop-color="#8FC0E9"></stop><stop offset="0.566265" stop-color="#8EBFE9"></stop><stop offset="0.578313" stop-color="#8DBDEA"></stop><stop offset="0.590361" stop-color="#8DBCEA"></stop><stop offset="0.60241" stop-color="#8CBBEA"></stop><stop offset="0.614458" stop-color="#8BBAEA"></stop><stop offset="0.626506" stop-color="#8AB9EA"></stop><stop offset="0.638554" stop-color="#89B7EA"></stop><stop offset="0.650602" stop-color="#88B6EA"></stop><stop offset="0.662651" stop-color="#88B5EA"></stop><stop offset="0.674699" stop-color="#87B3EA"></stop><stop offset="0.686747" stop-color="#86B2EA"></stop><stop offset="0.698795" stop-color="#85B1EA"></stop><stop offset="0.710843" stop-color="#84AFEA"></stop><stop offset="0.722892" stop-color="#83AEEA"></stop><stop offset="0.73494" stop-color="#82ACEA"></stop><stop offset="0.746988" stop-color="#81ABEA"></stop><stop offset="0.759036" stop-color="#80A9EA"></stop><stop offset="0.771084" stop-color="#7FA8EA"></stop><stop offset="0.783133" stop-color="#7EA6EA"></stop><stop offset="0.795181" stop-color="#7DA5EA"></stop><stop offset="0.807229" stop-color="#7CA3EA"></stop><stop offset="0.819277" stop-color="#7BA2EA"></stop><stop offset="0.831325" stop-color="#7AA0EA"></stop><stop offset="0.843373" stop-color="#799EEA"></stop><stop offset="0.855422" stop-color="#789DEA"></stop><stop offset="0.86747" stop-color="#779BEA"></stop><stop offset="0.879518" stop-color="#7599EA"></stop><stop offset="0.891566" stop-color="#7498EA"></stop><stop offset="0.903614" stop-color="#7396EA"></stop><stop offset="0.915663" stop-color="#7294EA"></stop><stop offset="0.927711" stop-color="#7193EA"></stop><stop offset="0.939759" stop-color="#7091EA"></stop><stop offset="0.951807" stop-color="#6E8FEA"></stop><stop offset="0.963855" stop-color="#6D8DEA"></stop><stop offset="0.975904" stop-color="#6C8BEA"></stop><stop offset="0.987952" stop-color="#6B89EA"></stop><stop offset="1" stop-color="#6A88EB"></stop></linearGradient></defs><g clip-path="url(#clip0)" transform="translate(-3763 -1832)"><path d="M192 51.3811 190.015 45.9465 186.542 34.5834 182.077 28.1608 141.891 21.7381 116.589 2.47024 76.403 0 74.4185 20.256 3.47286 20.256 0.496123 45.9465 0 51.3811 10.9147 68.6728 21.8294 68.6728 26.7907 79.0478 40.6821 82.5061 51.1007 71.143 50.6046 68.6728 130.977 68.6728 139.411 68.6728 138.915 69.1668 149.829 83.0002 161.24 80.53 168.682 70.649 168.682 68.6728 180.093 68.6728 192 51.3811Z" fill="#1E2ED9" fill-rule="evenodd" transform="matrix(-1 0 0 1 3957 1833)"></path><path d="M157.588 43.0058C153.156 43.0058 148.724 44.4888 144.784 46.9604 72.3919 46.9604 72.3919 46.9604 72.3919 46.9604 72.3919 22.7387 72.3919 22.7387 72.3919 22.7387 72.8844 13.841 73.3769 8.89776 75.8392 0 106.372 0 106.372 0 106.372 0 125.085 0 134.935 10.3807 145.769 20.2671 145.769 20.2671 162.02 22.7387 175.317 25.2103 184.673 26.6933 188.613 28.6706 189.598 35.0967 192.06 46.9604 192.06 46.9604 192.06 46.9604 170.392 46.9604 170.392 46.9604 170.392 46.9604 166.945 44.4888 162.512 43.0058 157.588 43.0058ZM96.5226 6.92048C81.2562 6.92048 81.2562 6.92048 81.2562 6.92048 80.2713 12.358 79.7789 17.3012 79.7789 22.2444 96.5226 22.2444 96.5226 22.2444 96.5226 22.2444L96.5226 6.92048ZM106.372 6.92048C103.91 6.92048 103.91 6.92048 103.91 6.92048 103.91 22.2444 103.91 22.2444 103.91 22.2444 137.397 22.2444 137.397 22.2444 137.397 22.2444 128.533 13.841 120.161 6.92048 106.372 6.92048ZM186.643 39.5456C186.151 36.0854 186.151 36.0854 186.151 36.0854 185.658 33.6138 185.166 32.1308 182.703 31.1422 178.271 31.1422 169.407 31.1422 168.422 31.1422 166.452 31.1422 165.96 32.6251 167.437 33.6138 168.422 35.0967 168.915 35.591 169.899 36.5797 172.854 39.5456 177.779 39.5456 183.196 39.5456L186.643 39.5456ZM194.03 52.3979C176.794 52.3979 176.794 52.3979 176.794 52.3979 180.241 56.8468 182.211 62.2843 182.211 68.2162 182.211 69.6991 182.211 69.6991 182.211 69.6991 182.211 69.6991 189.598 67.7218 191.075 67.2275 195.507 66.2389 196 63.7673 196 60.307 196 59.3184 196 56.8468 196 56.8468 196 54.8695 195.507 53.3866 194.03 52.3979ZM37.4271 43.0058C32.5025 43.0058 28.0703 44.4888 24.6231 46.9604 2.46231 46.9604 2.46231 46.9604 2.46231 46.9604 2.46231 41.5229 2.46231 41.5229 2.46231 41.5229 2.46231 37.5683 1.47739 27.1876 5.41708 21.7501 5.41708 21.7501 43.3367 21.7501 66.9748 21.7501 66.9748 46.9604 66.9748 46.9604 66.9748 46.9604 50.2311 46.9604 50.2311 46.9604 50.2311 46.9604 46.7839 44.4888 42.3517 43.0058 37.4271 43.0058ZM8.86432 30.1535C6.40201 30.1535 6.40201 30.1535 6.40201 30.1535 6.40201 31.1422 6.40201 32.6251 6.40201 34.1081 6.40201 43.0058 6.40201 43.0058 6.40201 43.0058 11.8191 43.0058 11.8191 43.0058 11.8191 43.0058 11.8191 42.0172 11.8191 39.0513 11.8191 36.5797 11.8191 33.6138 12.3116 30.1535 8.86432 30.1535ZM33.9799 68.2162C33.9799 70.1934 35.4573 71.6764 37.4271 71.6764 39.397 71.6764 40.8744 70.1934 40.8744 68.2162 40.8744 65.7446 39.397 64.2616 37.4271 64.2616 35.4573 64.2616 33.9799 65.7446 33.9799 68.2162ZM37.4271 48.9377C47.7688 48.9377 56.6331 57.3411 56.6331 68.2162 56.6331 78.5969 47.7688 87.0003 37.4271 87.0003 27.0854 87.0003 18.2211 78.5969 18.2211 68.2162 18.2211 57.3411 27.0854 48.9377 37.4271 48.9377ZM37.4271 78.5969C43.3367 78.5969 47.7688 73.6537 47.7688 68.2162 47.7688 62.2843 43.3367 57.3411 37.4271 57.3411 31.5176 57.3411 27.0854 62.2843 27.0854 68.2162 27.0854 73.6537 31.5176 78.5969 37.4271 78.5969ZM0 56.3525C0 61.79 0 61.79 0 61.79 0 67.2275 4.92462 67.7218 12.804 69.6991 12.804 68.2162 12.804 68.2162 12.804 68.2162 12.804 62.2843 14.7739 56.8468 18.2211 52.3979 1.96985 52.3979 1.96985 52.3979 1.96985 52.3979 0.984924 53.3866 0 54.3752 0 56.3525ZM138.382 52.3979C56.6331 52.3979 56.6331 52.3979 56.6331 52.3979 60.0804 56.8468 62.0502 62.2843 62.0502 68.2162 62.0502 69.6991 62.0502 69.6991 62.0502 69.6991 84.211 69.6991 109.819 69.6991 132.965 69.6991 132.965 68.2162 132.965 68.2162 132.965 68.2162 132.965 62.2843 134.935 56.8468 138.382 52.3979ZM154.141 68.2162C154.141 70.1934 155.618 71.6764 157.588 71.6764 159.558 71.6764 161.528 70.1934 161.528 68.2162 161.528 65.7446 159.558 64.2616 157.588 64.2616 155.618 64.2616 154.141 65.7446 154.141 68.2162ZM157.588 48.9377C168.422 48.9377 176.794 57.3411 176.794 68.2162 176.794 78.5969 168.422 87.0003 157.588 87.0003 147.246 87.0003 138.382 78.5969 138.382 68.2162 138.382 57.3411 147.246 48.9377 157.588 48.9377ZM157.588 78.5969C163.497 78.5969 168.422 73.6537 168.422 68.2162 168.422 62.2843 163.497 57.3411 157.588 57.3411 151.678 57.3411 147.246 62.2843 147.246 68.2162 147.246 73.6537 151.678 78.5969 157.588 78.5969Z" fill="url(#fill1)" fill-rule="evenodd" transform="matrix(-1 0 0 1 3959 1832)"></path></g></svg>