<?xml version="1.0" encoding="UTF-8"?>
<svg id="Layer_2" data-name="Layer 2" xmlns="http://www.w3.org/2000/svg" xmlns:xlink="http://www.w3.org/1999/xlink" viewBox="0 0 281.81 149.07">
  <defs>
    
    <linearGradient id="Unbenannter_Verlauf_62" data-name="Unbenannter Verlauf 62" x1="273.31" y1="19.11" x2="238.53" y2="19.11" gradientUnits="userSpaceOnUse">
      <stop offset=".05" stop-color="#1e2ed9"></stop>
      <stop offset=".75" stop-color="#9dbbff"></stop>
      <stop offset="1" stop-color="#affad7"></stop>
    </linearGradient>
    <linearGradient id="linear-gradient" x1="252.53" y1="6.24" x2="252.53" y2="19.19" gradientUnits="userSpaceOnUse">
      <stop offset="0" stop-color="#9dbbff"></stop>
      <stop offset=".8" stop-color="#affad7" stop-opacity=".6"></stop>
    </linearGradient>
    <linearGradient id="Unbenannter_Verlauf_62-2" data-name="Unbenannter Verlauf 62" x1="352.73" y1="74.44" x2="169.65" y2="74.44" xlink:href="#Unbenannter_Verlauf_62"></linearGradient>
    <linearGradient id="linear-gradient-2" x1="159.56" y1="46.9" x2="275.46" y2="46.9" gradientUnits="userSpaceOnUse">
      <stop offset=".08" stop-color="#9dbbff"></stop>
      <stop offset="1" stop-color="#1e2ed9"></stop>
    </linearGradient>
    <linearGradient id="linear-gradient-3" x1="248.68" y1="-144.52" x2="-251.54" y2="-144.52" gradientTransform="translate(0 -78.64) scale(1 -1)" gradientUnits="userSpaceOnUse">
      <stop offset="0" stop-color="#1e2ed9"></stop>
      <stop offset=".5" stop-color="#9dbbff"></stop>
      <stop offset=".65" stop-color="#affad7"></stop>
    </linearGradient>
    <linearGradient id="linear-gradient-4" x1="51.52" y1="67.31" x2="104.3" y2="158.61" gradientUnits="userSpaceOnUse">
      <stop offset="0" stop-color="#affad7" stop-opacity=".5"></stop>
      <stop offset="1" stop-color="#9dbbff"></stop>
    </linearGradient>
    <linearGradient id="linear-gradient-5" x1="54.52" y1="76.36" x2="107.3" y2="167.66" xlink:href="#linear-gradient-4"></linearGradient>
    <linearGradient id="linear-gradient-6" x1="232.9" y1="73.92" x2="269.59" y2="137.4" xlink:href="#linear-gradient-4"></linearGradient>
    <linearGradient id="linear-gradient-7" x1="235.21" y1="81.84" x2="273.19" y2="147.53" xlink:href="#linear-gradient-4"></linearGradient>
    <linearGradient id="linear-gradient-8" x1="74.25" y1="-43.31" x2="120.42" y2="36.57" gradientTransform="translate(30.63 133.26) rotate(-90)" xlink:href="#linear-gradient-4"></linearGradient>
    <linearGradient id="linear-gradient-9" x1="-7.49" y1="19.29" x2="24.79" y2="75.13" gradientTransform="translate(161.17 154.84) rotate(-180)" xlink:href="#linear-gradient-4"></linearGradient>
    <linearGradient id="linear-gradient-10" x1="64.99" y1="-205.66" x2="95.12" y2="-205.66" gradientTransform="translate(0 -78.64) scale(1 -1)" gradientUnits="userSpaceOnUse">
      <stop offset="0" stop-color="#9dbbff"></stop>
      <stop offset=".8" stop-color="#affad7" stop-opacity=".6"></stop>
    </linearGradient>
    <linearGradient id="linear-gradient-11" x1="139.71" y1="23.44" x2="244.35" y2="204.48" xlink:href="#linear-gradient-2"></linearGradient>
    <linearGradient id="Unbenannter_Verlauf_56" data-name="Unbenannter Verlauf 56" x1="81.33" y1="-29.29" x2="172.33" y2="128.14" gradientUnits="userSpaceOnUse">
      <stop offset="0" stop-color="#affad7"></stop>
      <stop offset=".44" stop-color="#9dbbff"></stop>
      <stop offset="1" stop-color="#1e2ed9"></stop>
    </linearGradient>
    <linearGradient id="linear-gradient-12" x1="257.14" y1="116.52" x2="306.8" y2="116.52" gradientTransform="translate(522.24) rotate(-180) scale(1 -1)" gradientUnits="userSpaceOnUse">
      <stop offset="0" stop-color="#9dbbff"></stop>
      <stop offset=".8" stop-color="#affad7" stop-opacity=".6"></stop>
    </linearGradient>
    <linearGradient id="linear-gradient-13" x1="230.52" x2="260.65" xlink:href="#linear-gradient-10"></linearGradient>
  </defs>
  <g id="Layer_1-2" data-name="Layer 1">
    <g>
      <g>
        <rect class="cls-17" x="245.38" y="16.36" width="14.3" height="5.5"></rect>
        <rect class="cls-4" x="247.94" y="7.99" width="9.18" height="8.37"></rect>
      </g>
      <g>
        <g>
          <path class="cls-16" d="M270.48,24.82c0,.3,0,55.8,0,55.8l9.75,11.31c.47.54.73,1.24.73,1.96v30.14c0,1.66-1.34,3-3,3h-72.28s0-105.17,0-105.17h61.8c1.64,0,2.98,1.32,3,2.97Z"></path>
          <path class="cls-3" d="M217.63,27.92h52.84v37.96h-52.84c-1.62,0-2.94-1.32-2.94-2.94V30.86c0-1.62,1.32-2.94,2.94-2.94Z"></path>
        </g>
        <rect class="cls-1" x="230.4" y="73.65" width="10.84" height="1.58"></rect>
      </g>
      <path class="cls-2" d="M205.67,3v125.76c0,1.66-1.34,3-3,3H25.76c-.64,0-1.26-.2-1.78-.58L1.22,114.42C.45,113.86,0,112.96,0,112V3C0,1.34,1.34,0,3,0h199.67C204.33,0,205.67,1.34,205.67,3Z"></path>
      <polygon class="cls-8" points="8.43 83.83 114.96 83.83 116.85 89.45 10.43 89.45 8.43 83.83"></polygon>
      <polygon class="cls-5" points="11.43 92.87 117.96 92.87 119.85 98.5 13.43 98.5 11.43 92.87"></polygon>
      <polygon class="cls-10" points="205.67 83.83 273.24 83.83 278.08 89.45 205.67 89.45 205.67 83.83"></polygon>
      <path class="cls-6" d="M205.67,92.87h75.1s.18.37.18,1.18v4.45h-75.28s0-5.63,0-5.63Z"></path>
      <rect class="cls-7" x="2.8" y="0" width="2.81" height="98.5"></rect>
      <rect class="cls-9" x="128.13" y="122.33" width="67.4" height="2.81"></rect>
      <g>
        <circle class="cls-1" cx="71.21" cy="127.02" r="22.05"></circle>
        <circle class="cls-12" cx="71.21" cy="127.02" r="10.73"></circle>
      </g>
      <rect class="cls-13" x="128.13" y="13.49" width="67.4" height="96.46"></rect>
      <rect class="cls-18" x="5.61" y="0" width="189.92" height="7.98"></rect>
      <g>
        <rect class="cls-1" x="273.19" y="35.35" width="8.62" height="22.94" rx="1.76" ry="1.76"></rect>
        <path class="cls-1" d="M275.18,65.88h-4.7v-2.03h4.56c.87-.14,1.55-.85,1.56-1.65v-30.65c0-.87-.8-1.59-1.73-1.59h-4.39s0-2.04,0-2.04h4.39c2.05.01,3.74,1.62,3.76,3.59v30.67c-.02,1.87-1.47,3.44-3.38,3.69h-.07Z"></path>
      </g>
      <path class="cls-14" d="M280.95,106v18.03c0,1.66-1.34,3-3,3h-72.28v-21.02s75.28,0,75.28,0Z"></path>
      <g>
        <circle class="cls-1" cx="236.74" cy="127.02" r="22.05"></circle>
        <circle class="cls-15" cx="236.74" cy="127.02" r="10.73"></circle>
      </g>
      <path class="cls-11" d="M272.04,106h8.91v12.47h-8.91c-.73,0-1.32-.59-1.32-1.32v-9.83c0-.73.59-1.32,1.32-1.32Z"></path>
    </g>
  </g>
</svg>